<svg xmlns="http://www.w3.org/2000/svg" version="1.1" viewBox="0 0 1600 336" width="1280" height="400">
<path transform="translate(207,11)" d="m0 0c0.119 0.572 0.237 1.14 0.359 1.73 0.687 2.43 1.65 4.32 2.89 6.52 0.442 0.78 0.884 1.56 1.34 2.36 1.75 2.97 3.6 5.87 5.49 8.76 0.918 1.63 0.918 1.63 0.918 3.63 0.66 0.33 1.32 0.66 2 1 0.869 1.57 1.67 3.19 2.44 4.81 1.59 3.38 3.32 6.21 5.56 9.19 0.33 0.99 0.66 1.98 1 3 0.66 0.66 1.32 1.32 2 2 0.433 1.18 0.433 1.18 0.875 2.38 0.98 2.74 0.98 2.74 3.19 4.69 2.12 2.12 2.3 3.12 2.94 5.94 0.474 0.454 0.949 0.908 1.44 1.38 2.15 2.24 2.59 4.71 3.56 7.62 1.54 1.71 1.54 1.71 3 3v2c0.66 0.66 1.32 1.32 2 2v3c0.66 0.33 1.32 0.66 2 1 1.25 2.15 2 3.5 2 6 0.66 0.33 1.32 0.66 2 1 1.01 1.66 2.01 3.33 3 5 0.99 1.18 0.99 1.18 2 2.38 2.31 3.03 3.5 6.13 5 9.62 1.31 1.68 2.65 3.35 4 5 1.01 2 2.01 4 3 6 1.76 3.05 3.57 6.07 5.38 9.1 1.62 2.9 1.62 2.9 2.59 5.46 1.25 2.94 3 4.99 5.04 7.44 5.44 8.09 10.1 16.7 14.8 25.2 4.44 7.99 8.98 15.9 13.8 23.7 4.31 6.96 8.44 14 12.6 21.1 1.47 2.52 2.94 5.03 4.41 7.55 0.367 0.627 0.734 1.25 1.11 1.9 3.77 6.45 7.6 12.9 11.4 19.3 6.58 11.1 13.1 22.2 19.5 33.4 3.44 5.99 6.92 12 10.4 17.9-3.27 0.975-6.21 1.12-9.61 1.12-1.15 0.00199-2.3 0.00398-3.49 0.00603-1.26-0.00291-2.53-0.00583-3.83-0.00883-1.36 4.36e-4 -2.71 0.00131-4.07 0.00259-3.73 0.00224-7.46-0.00177-11.2-0.00678-4.02-0.00431-8.04-0.00286-12.1-0.0021-6.97 5.25e-4 -13.9-0.00262-20.9-0.00824-10.1-0.00812-20.2-0.0107-30.2-0.012-16.3-0.00219-32.7-0.00885-49-0.0183-15.9-0.00918-31.8-0.0163-47.6-0.0205-0.979-2.63e-4 -1.96-5.25e-4 -2.97-7.96e-4 -4.91-0.00131-9.82-0.00257-14.7-0.00381-40.7-0.0104-81.5-0.028-122-0.0503 1.32-4.1 2.78-7.63 4.98-11.3 0.877-1.49 0.877-1.49 1.77-3.01 0.619-1.04 1.24-2.08 1.88-3.15 1.27-2.16 2.55-4.32 3.82-6.48l1.86-3.15c2.1-3.57 4.15-7.15 6.19-10.8 1.17-2.04 2.33-4.08 3.5-6.12 0.862-1.52 0.862-1.52 1.74-3.06 0.808-1.39 0.808-1.39 1.63-2.81 0.461-0.802 0.923-1.6 1.4-2.43 0.405-0.559 0.81-1.12 1.23-1.7h2c0.152-1.06 0.152-1.06 0.306-2.14 0.796-3.28 2.09-5.66 3.79-8.58 0.949-1.64 0.949-1.64 1.92-3.3 0.683-1.16 1.37-2.32 2.05-3.48 0.696-1.19 1.39-2.39 2.09-3.58 3.83-6.56 7.75-13.1 11.8-19.5 2.91-4.75 5.59-9.63 8.32-14.5 4.13-7.36 8.32-14.7 12.7-21.9 9.57-15.8 18.8-31.8 27.9-47.9 2.58-4.52 5.22-8.99 7.99-13.4 3.91-6.25 7.48-12.7 11.1-19.1 12.3-22.1 12.3-22.1 18.1-30.6 1.91-2.92 3.4-5.86 4.95-8.98 1.73-3.08 3.52-6.13 5.31-9.19 3.62-6.2 7.16-12.4 10.5-18.8 3.02-5.03 3.02-5.03 6.22-5.03zm159 281c0.66 0.66 1.32 1.32 2 2v-2h-2z" fill="#FB9989"/>
<path transform="translate(1020 109)" d="m0 0c0.757 0.00202 1.51 0.00405 2.29 0.00613 0.773-9.57e-4 1.55-0.00191 2.34-0.0029 1.64-6.82e-4 3.28 0.00117 4.91 0.00534 2.52 0.00535 5.03 5.48e-5 7.55-0.00635 1.59 6.61e-4 3.17 0.00194 4.76 0.00391 1.14-0.00304 1.14-0.00304 2.29-0.00613 5.31 0.024 5.31 0.024 6.42 1.14 0.0958 1.52 0.122 3.04 0.12 4.56 0.00137 0.986 0.00275 1.97 0.00417 2.99-0.00539 1.64-0.00539 1.64-0.0109 3.3 1.46e-4 1.14 2.92e-4 2.28 4.43e-4 3.46-7e-4 3.79-0.00849 7.59-0.0163 11.4-0.00186 2.62-0.00329 5.24-0.00429 7.87-0.00311 6.21-0.0113 12.4-0.0213 18.6-0.0123 7.76-0.0177 15.5-0.0232 23.3-0.00975 13.8-0.0298 27.7-0.0488 41.5h115c0.33 4.62 0.66 9.24 1 14h2c0.0799-0.697 0.16-1.39 0.242-2.11 0.939-3.58 2.76-6.11 4.88-9.07 4.85-7 9.1-14.3 13.3-21.7 4.14-7.27 8.3-14.5 12.9-21.4 5.02-7.55 9.58-15.4 14.1-23.2 4.98-8.58 10-17.1 15.5-25.3 4.54-6.88 8.68-14 12.8-21.1 0.526-0.901 1.05-1.8 1.59-2.73 0.469-0.808 0.939-1.62 1.42-2.45 1.13-1.86 1.13-1.86 2.13-2.86 10.9-1.98 24.4-3.98 35 0 7.8 6.11 11.6 15.5 15.4 24.4 2.17 4.82 4.86 9.18 7.72 13.6 0.797 1.3 1.59 2.6 2.38 3.91 1.89 3.07 3.82 6.11 5.77 9.15 4.56 7.15 8.94 14.4 13.3 21.7 4.18 6.92 8.4 13.8 12.8 20.6 2.65 4.15 5.24 8.33 7.83 12.5 0.551 0.89 1.1 1.78 1.67 2.7 3.94 6.39 7.84 12.8 11.7 19.2 0.732 1.22 0.732 1.22 1.48 2.46 2.71 4.52 5.35 9.08 7.96 13.7-5.59 0.248-11.2 0.429-16.8 0.549-1.9 0.0502-3.8 0.118-5.7 0.205-15.8 0.704-15.8 0.704-20.2-2.95-1.95-3.19-3.39-6.01-3.39-9.8h-2c-3.3-5.94-6.6-11.9-10-18-12.6-0.294-25.3-0.532-37.9-0.674-5.87-0.0678-11.7-0.16-17.6-0.307-5.67-0.142-11.3-0.219-17-0.253-2.16-0.024-4.32-0.0708-6.48-0.141-10.8-0.837-10.8-0.837-20.7 2.63-3.12 3.46-4.76 7.36-6.31 11.7-0.386 0.964-0.773 1.93-1.17 2.92-0.274 0.686-0.547 1.37-0.829 2.08h-2c-0.247 0.681-0.495 1.36-0.75 2.06-1.47 3.45-3.39 6.68-5.25 9.94h-183c-0.0206-23.6-0.0412-47.1-0.0625-71.4-0.0091-7.46-0.0182-14.9-0.0276-22.6-0.00452-9.07-0.00452-9.07-0.00536-13.3-9.35e-4 -2.98-0.0047-5.95-0.0101-8.93-0.00683-3.79-0.00892-7.58-0.0075-11.4-2.98e-4 -1.39-0.0023-2.79-0.00614-4.18-0.00493-1.88-0.00319-3.75-0.00104-5.63-9.22e-4 -1.05-0.00184-2.11-0.00279-3.19 0.233-4.47 2.65-3.48 6.55-3.5zm243 27.1c-6.2 10.9-12.2 21.8-18 32.9-3.13 5.85-6.37 11.6-9.96 17.1-3.04 4.65-3.04 4.65-4 10h66c0.495-0.99 0.495-0.99 1-2-0.33-0.66-0.66-1.32-1-2h-2c-0.272-0.881-0.544-1.76-0.825-2.67-1.1-3.1-2.36-5.75-3.98-8.61-0.559-0.997-1.12-1.99-1.69-3.02-0.6-1.06-1.2-2.11-1.82-3.2-0.617-1.09-1.23-2.19-1.87-3.31-4.28-7.55-8.62-15.1-13-22.6-0.54-0.926-1.08-1.85-1.64-2.81-0.506-0.855-1.01-1.71-1.53-2.59-0.44-0.747-0.88-1.49-1.33-2.26-1.28-1.91-2.63-3.41-4.31-4.96z" fill="#ffffff"/>
<path transform="translate(335,109)" d="m0 0c5.59-0.223 11.2-0.386 16.8-0.494 1.9-0.0452 3.8-0.107 5.7-0.185 15.7-0.63 15.7-0.63 20 2.44 1.59 2.36 2.57 4.57 3.55 7.24 0.781 1.36 1.59 2.71 2.42 4.04 0.778 1.34 1.55 2.68 2.33 4.03 3.21 5.53 6.51 11 9.94 16.4 4.44 7 8.57 14.2 12.7 21.4 4.96 8.67 10.1 17.2 15.5 25.6 4.71 7.36 8.98 14.9 13.2 22.6 3.49-4.07 6.05-8.39 8.62-13.1 0.394-0.707 0.789-1.41 1.2-2.14 1.07-1.93 2.14-3.85 3.18-5.79 0.564-1.03 0.564-1.03 1.14-2.08 1.2-2.69 0.747-4.15-0.139-6.92-1.2-2.04-1.2-2.04-2.81-4.06-3.57-4.92-6.71-10-9.81-15.2-6.33-10.6-12.8-21.2-19.4-31.7-0.499-0.801-0.998-1.6-1.51-2.43-1.39-2.23-2.78-4.46-4.18-6.7-0.615-0.986-0.615-0.986-1.24-1.99-1.66-2.65-3.33-5.28-5.07-7.88v-3c5.48-0.124 11-0.214 16.4-0.275 1.86-0.0251 3.73-0.0592 5.59-0.103 2.68-0.0607 5.36-0.089 8.04-0.111 0.832-0.0258 1.66-0.0516 2.52-0.0782 5.81-0.00281 5.81-0.00281 8.83 2.9 0.517 0.881 1.03 1.76 1.57 2.67 0.663 1.06 1.33 2.12 2.01 3.21 0.709 1.2 1.41 2.4 2.12 3.61 3.33 5.63 6.72 11.2 10.2 16.8 0.408 0.654 0.816 1.31 1.24 1.98 2.42 3.86 4.9 7.67 7.45 11.5 0.573-1.07 0.573-1.07 1.16-2.16 19.6-36.6 19.6-36.6 22.8-39.8 2.72-0.175 5.35-0.231 8.07-0.195 0.796 0.00283 1.59 0.00566 2.41 0.00858 2.55 0.0112 5.09 0.0363 7.64 0.0617 1.73 0.01 3.45 0.0192 5.18 0.0273 4.23 0.0221 8.47 0.0566 12.7 0.0977 0 4.13-2.03 6.76-4.12 10.2-0.921 1.54-1.84 3.07-2.76 4.61-0.501 0.833-1 1.67-1.52 2.53-2.28 3.83-4.51 7.68-6.75 11.5-4.87 8.39-9.78 16.7-14.8 25-0.446 0.73-0.893 1.46-1.35 2.21-1.87 3.05-3.76 6.09-5.69 9.1-0.562 0.887-1.12 1.77-1.7 2.69-0.469 0.719-0.938 1.44-1.42 2.18-1.08 2.54-0.711 3.34 0.172 5.95 1.08 2.03 2.21 4.03 3.38 6.01 0.332 0.567 0.663 1.13 1 1.72 1.05 1.8 2.12 3.6 3.18 5.4 1.07 1.81 2.13 3.61 3.19 5.42 0.958 1.64 1.92 3.27 2.89 4.9 1.36 2.55 1.36 2.55 1.36 4.55h2c0.268-0.71 0.535-1.42 0.811-2.15 1.23-2.94 2.65-5.65 4.21-8.44 0.603-1.08 1.21-2.17 1.83-3.28 0.655-1.17 1.31-2.34 1.96-3.5 0.678-1.22 1.36-2.43 2.03-3.65 6.88-12.3 13.8-24.6 20.8-36.9 1.64-2.9 3.29-5.79 4.93-8.69 0.798-1.41 0.798-1.41 1.61-2.84 4.41-7.81 8.72-15.7 13-23.6 0.465-0.861 0.929-1.72 1.41-2.61 0.404-0.754 0.809-1.51 1.23-2.29 0.408-0.696 0.816-1.39 1.24-2.11 0.566-1.11 0.566-1.11 1.14-2.25 2.93-2.76 6.22-2.24 10-2.14 0.795 0.00566 1.59 0.0113 2.41 0.0172 2.54 0.0224 5.07 0.0726 7.61 0.123 1.72 0.0201 3.44 0.0383 5.16 0.0547 4.22 0.0441 8.43 0.113 12.7 0.195 0.33 0.66 0.66 1.32 1 2-1.09 2.08-2.24 4.02-3.5 6-5.16 8.35-10 16.8-14.9 25.4-3.75 6.53-7.62 13-11.6 19.4-3.3 5.35-6.49 10.8-9.69 16.2-0.698 1.18-1.4 2.36-2.09 3.54-1.41 2.38-2.81 4.76-4.22 7.14-1.82 3.08-3.65 6.17-5.47 9.25-2.65 4.48-5.3 8.96-7.94 13.4-1.64 2.78-3.29 5.57-4.93 8.35-0.552 0.938-1.1 1.88-1.67 2.84-1.1 1.86-2.22 3.71-3.35 5.56-2.6 4.28-4.92 8.44-6.76 13.1-3.79 9.03-3.79 9.03-7.88 11.8-4.4 1.34-8.6 1.62-13.2 1.69-1.14 0.0198-2.28 0.0396-3.46 0.0601-4.68-0.243-8.04-0.514-11.5-3.79-1.84-2.57-3.35-5.16-4.82-7.95-0.871-1.45-1.75-2.9-2.62-4.34-0.795-1.38-1.59-2.77-2.38-4.16-3.7-6.4-7.59-12.6-12-18.5-0.594 1.09-1.19 2.18-1.8 3.3-4.58 8.36-9.28 16.6-14.3 24.8-0.477 0.779-0.953 1.56-1.44 2.36-3.35 5.43-3.35 5.43-4.49 6.58-4.22 0.477-8.45 0.558-12.7 0.688-1.78 0.119-1.78 0.119-3.59 0.24-3.51 0.0846-6.34 0.0374-9.72-0.928-3.18-3.23-6-7.32-6-12h-2c-0.565-1.18-1.13-2.35-1.71-3.57-2.01-4.03-4.35-7.68-6.91-11.4-3.6-5.29-6.98-10.7-10.2-16.2-8.21-14.2-17-28-25.7-41.8-3.6-5.69-7.07-11.4-10.5-17.2-4.2-7.07-8.56-14-13.1-20.9-2.9-4.44-5.77-8.91-8.57-13.4-0.643-1.03-1.29-2.06-1.95-3.12-1.36-2.44-1.36-2.44-1.36-4.44z" fill="#ffffff"/>
<path transform="translate(816 109)" d="m0 0c1.74-0.00857 1.74-0.00857 3.52-0.0173 1.29-0.00112 2.57-0.00224 3.89-0.00339 1.36-0.00463 2.72-0.00965 4.08-0.015 3.7-0.0132 7.41-0.0196 11.1-0.024 2.32-0.00293 4.63-0.00703 6.95-0.0115 7.26-0.0137 14.5-0.0233 21.8-0.0272 8.36-0.00447 16.7-0.0219 25.1-0.051 6.47-0.0217 12.9-0.0317 19.4-0.033 3.86-0.00104 7.72-0.00684 11.6-0.0248 3.64-0.0166 7.28-0.0186 10.9-0.00986 1.95 0.00112 3.9-0.0125 5.86-0.0268 10 0.0466 21.6 0.498 29.5 7.38 5.79 6.05 7.3 11.4 7.41 19.7 0.0114 0.722 0.0228 1.44 0.0345 2.19 0.0188 1.52 0.0319 3.05 0.0397 4.57 0.0194 2.3 0.0815 4.6 0.145 6.9 0.129 8.69-0.344 16-6.62 22.7-2.33 1.83-4.64 3.02-7.38 4.12-0.641 0.289-1.28 0.577-1.94 0.875-1.55 0.694-3.11 1.35-4.68 2 0.713 0.352 1.43 0.704 2.16 1.07 7.57 3.9 13.3 7.7 17.7 15.1 2.45 8.31 2.41 17.2 2.12 25.8-0.0251 1.34-0.0251 1.34-0.0508 2.71-0.38 7.74-2.3 14.3-7.6 20.1-8.3 7-20.6 9.31-31.2 9.3-1.15 0.00137-2.31 0.00275-3.49 0.00417-1.25-0.0036-2.5-0.00719-3.79-0.0109-1.34-2.82e-4 -2.68-1.23e-4 -4.02 4.43e-4 -3.63 2.86e-4 -7.26-0.00558-10.9-0.0126-3.8-0.00626-7.59-0.00684-11.4-0.00803-7.18-0.0031-14.4-0.0113-21.5-0.0213-8.18-0.0112-16.4-0.0167-24.5-0.0217-16.8-0.0104-33.6-0.028-50.5-0.0503-0.0233-18.6-0.041-37.3-0.0518-55.9-0.00516-8.65-0.0122-17.3-0.0236-25.9-0.00995-7.54-0.0164-15.1-0.0186-22.6-0.00131-3.99-0.00439-7.98-0.0116-12-0.00676-3.75-0.00889-7.51-0.00738-11.3-2.76e-4 -1.38-0.00228-2.76-0.0061-4.14-0.00494-1.88-0.00319-3.76-0.00105-5.63-9.22e-4 -1.05-0.00184-2.11-0.00279-3.19 0.231-4.42 2.6-3.49 6.47-3.5zm29.7 24.1v34c10.8 0.0453 21.6 0.0819 32.4 0.104 5.01 0.0104 10 0.0245 15 0.0473 4.84 0.0218 9.69 0.0337 14.5 0.0389 1.84 0.00368 3.69 0.0109 5.53 0.0217 2.59 0.0146 5.18 0.0165 7.78 0.0156 0.753 0.00719 1.51 0.0144 2.28 0.0218 9.49 0.00222 9.49 0.00222 17.5-4.25 1.4-4.36 1.4-8.45 1.34-13 0.0116-0.889 0.0232-1.78 0.0352-2.7-0.00714-6.71-0.00714-6.71-3.41-12.3-4.96-2.14-9.37-2.28-14.7-2.23-0.849-2.92e-4 -1.7-5.84e-4 -2.57-8.85e-4 -2.79 0.00139-5.58 0.0169-8.38 0.0326-1.94 0.00373-3.88 0.00658-5.83 0.00858-5.1 0.00762-10.2 0.0273-15.3 0.0494-5.21 0.0205-10.4 0.0296-15.6 0.0397-10.2 0.0214-20.4 0.0566-30.6 0.0977zm0 57v38c11.5-0.0629 23-0.138 34.6-0.236 5.35-0.0447 10.7-0.084 16-0.111 5.16-0.026 10.3-0.0664 15.5-0.117 1.97-0.0167 3.94-0.0282 5.91-0.0344 2.76-0.00962 5.52-0.0377 8.27-0.07 0.814 0.00144 1.63 0.00287 2.47 0.00435 4.6-0.0764 7.59-0.606 11.3-3.44 4.19-4.41 3.52-9.1 3.5-14.9 0.0284-0.981 0.0567-1.96 0.0859-2.97 0.0117-4.35 0.0209-8.08-2.55-11.7-5.89-4.72-13.4-4.73-20.7-4.66-1.22-4.38e-4 -1.22-4.38e-4 -2.46-8.85e-4 -2.65 0.00138-5.29 0.0169-7.94 0.0326-1.85 0.00374-3.7 0.00658-5.54 0.00858-4.84 0.0076-9.68 0.0272-14.5 0.0494-5.82 0.0242-11.6 0.0333-17.5 0.0449-8.82 0.0193-17.6 0.0577-26.4 0.0924z" fill="#ffffff"/>
<path transform="translate(1384,109)" d="m0 0c34.6-0.0619 34.6-0.0619 69.9-0.125 7.27-0.0182 14.5-0.0364 22-0.0552 8.91-0.00903 8.91-0.00903 13.1-0.0107 2.9-0.00186 5.81-0.00933 8.71-0.0203 3.71-0.0138 7.43-0.0178 11.1-0.015 1.99-8.66e-4 3.99-0.0116 5.98-0.0227 9.66 0.0222 20.1 0.344 28.2 6.25 8.51 8.68 8.34 17.9 8.31 29.4 0.0161 1.28 0.0322 2.57 0.0488 3.89 0.00486 9.43-0.879 16.8-7.4 24.1-3.82 3.13-8.39 4.84-13 6.61 2.42 1.61 4.73 2.88 7.31 4.19 6.91 3.85 10.7 8.56 13.1 16.1 1.21 5.49 1.08 11 1.04 16.6 0.02 1.2 0.04 2.41 0.0605 3.64-0.00441 8.13-0.458 17.2-6.32 23.4-11.4 9.51-26.6 10.4-40.8 10.3-1.35-6.14e-4 -2.71-3.43e-4 -4.06 7.31e-4 -3.59 4.47e-4 -7.18-0.0111-10.8-0.0252-3.38-0.0115-6.76-0.0119-10.1-0.0134-9.86-0.0105-19.7-0.0384-29.6-0.0642-22-0.0412-44.1-0.0825-66.8-0.125v-144zm35 24v34c10.9 0.0453 21.9 0.0819 32.8 0.104 5.08 0.0104 10.2 0.0245 15.2 0.0473 4.91 0.0218 9.82 0.0337 14.7 0.0389 1.87 0.00368 3.74 0.0109 5.61 0.0217 2.63 0.0146 5.25 0.0165 7.88 0.0156 0.766 0.00719 1.53 0.0144 2.32 0.0218 5.94-0.0225 11.9-0.447 16.9-4.04 2.88-4.13 2.15-8.83 2.1-13.7 0.0238-1.05 0.0477-2.09 0.0723-3.17 0.0849-5.99 0.0849-5.99-2.86-11-5.31-2.57-10.5-2.48-16.3-2.46-1.27-2.19e-4 -1.27-2.19e-4 -2.57-4.43e-4 -2.8 6.95e-4 -5.59 0.00847-8.39 0.0163-1.94 0.00187-3.89 0.00329-5.83 0.00429-5.11 0.00381-10.2 0.0136-15.3 0.0247-5.22 0.0102-10.4 0.0148-15.6 0.0198-10.2 0.0107-20.5 0.0283-30.7 0.0488zm0 58c-0.101 2.65-0.14 5.28-0.133 7.94-9.57e-4 0.795-0.00191 1.59-0.0029 2.41-6.82e-4 1.68 0.00117 3.37 0.00534 5.05 0.00535 2.59 5.49e-5 5.18-0.00635 7.76 6.61e-4 1.63 0.00194 3.27 0.00391 4.9-0.00202 0.779-0.00405 1.56-0.00613 2.36-0.319 3.58-0.319 3.58 1.14 6.58 2.77 0.0865 5.51 0.107 8.28 0.0852 0.868-0.00318 1.74-0.00636 2.63-0.00964 2.89-0.0126 5.78-0.0335 8.66-0.056 0.985-0.00696 1.97-0.0139 2.98-0.0211 5.21-0.0375 10.4-0.0815 15.6-0.131 5.39-0.0493 10.8-0.0755 16.2-0.0964 4.14-0.0204 8.28-0.0583 12.4-0.101 1.99-0.0173 3.97-0.028 5.96-0.0319 2.78-0.00709 5.56-0.039 8.34-0.0769 0.818 0.00346 1.64 0.00692 2.48 0.0105 5.24-0.105 8.3-1.07 12.4-4.57 2.22-4.5 2.34-9 2.31-13.9l0.0488-2.05c0.00492-5.13-1.03-8.54-3.36-13-5.68-4.74-13.3-4.15-20.4-4.13-0.809-0.00175-1.62-0.0035-2.45-0.00531-2.65-0.00437-5.3-0.0015-7.96 0.00189-1.85-6.74e-4 -3.7-0.00164-5.55-0.0029-3.86-0.00147-7.72 6.58e-4 -11.6 0.00534-4.96 0.00572-9.92 0.0024-14.9-0.00357-3.81-0.0036-7.62-0.00247-11.4 1.28e-4 -1.83 6.69e-4 -3.66-1.57e-4 -5.49-0.00248-2.55-0.00252-5.09 0.00131-7.64 0.0069-0.762-0.00202-1.52-0.00405-2.31-0.00613-3.45-0.297-3.45-0.297-6.31 1.14z" fill="#ffffff"/>
<path transform="translate(156,94)" d="m0 0c1.95 0.68 1.95 0.68 4 2 0.609 2.38 0.609 2.38 0.75 5.12 0.0567 0.91 0.113 1.82 0.172 2.76 0.0258 0.699 0.0516 1.4 0.0781 2.12 2.47-0.495 2.47-0.495 5-1 0.99 1.48 0.99 1.48 2 3 1.96 0.577 1.96 0.577 4.12 0.688 1.28 0.103 2.56 0.206 3.88 0.312 0.731-2.27 1.09-3.65 0.5-6-0.587-2.35-0.231-3.73 0.5-6 2.55 1.28 2.93 2.4 4 5v3h-2v2l2 1v2c0.33 0.99 0.66 1.98 1 3-0.559 2.02-0.559 2.02-1.44 4.25-1.44 4.06-2.09 7.4-1.56 11.8 0.99 0.66 1.98 1.32 3 2-0.99 0.33-1.98 0.66-3 1v11c0.99-1.32 1.98-2.64 3-4 0.188 2.31 0.188 2.31 0 5-1.5 1.62-1.5 1.62-3 3v3c-0.33 0.99-0.66 1.98-1 3-0.305 5.62-0.305 5.62 1 11 0.99 0.33 1.98 0.66 3 1 0.196 1.75 0.381 3.5 0.562 5.25 0.104 0.975 0.209 1.95 0.316 2.95 0.111 2.56-0.102 4.38-0.879 6.8 2.97-0.495 2.97-0.495 6-1 0.687 2.49 1 4.38 1 7-0.99 0.495-0.99 0.495-2 1-0.473 2.54-0.473 2.54-0.625 5.56-0.0773 1.08-0.155 2.17-0.234 3.28-0.116 2.6-0.112 5.12-0.0156 7.72-0.125 3.44-0.125 3.44-1.56 5.06-0.773 0.681-0.773 0.681-1.56 1.38-1.62 6.02-1.95 13.2 0.0625 19.1 2.15 6.59-0.555 12.8-3.06 18.9h2c0.0919 4.89 0.11 9.7-0.5 14.6-0.544 4.43-1.05 8.99-0.5 13.4 0.66 0.66 1.32 1.32 2 2-0.99 0.99-1.98 1.98-3 3-0.33 4.62-0.66 9.24-1 14h-139c1.47-4.42 2.67-7.46 4.98-11.3 0.585-0.992 1.17-1.98 1.77-3.01 0.619-1.04 1.24-2.08 1.88-3.15 1.27-2.16 2.55-4.32 3.82-6.48 0.921-1.56 0.921-1.56 1.86-3.15 2.1-3.57 4.15-7.15 6.19-10.8 1.17-2.04 2.33-4.08 3.5-6.12l1.74-3.06c0.808-1.39 0.808-1.39 1.63-2.81 0.461-0.802 0.923-1.6 1.4-2.43 0.405-0.559 0.81-1.12 1.23-1.7h2c0.152-1.06 0.152-1.06 0.306-2.14 0.796-3.28 2.09-5.66 3.79-8.58 0.949-1.64 0.949-1.64 1.92-3.3 0.683-1.16 1.37-2.32 2.05-3.48 0.696-1.19 1.39-2.39 2.09-3.58 3.83-6.56 7.75-13.1 11.8-19.5 2.91-4.75 5.59-9.63 8.32-14.5 4.13-7.36 8.32-14.7 12.7-21.9 9.56-15.8 18.8-31.8 27.9-47.9 3.45-6.05 7.02-12 10.7-17.9 1.42-2.21 1.42-2.21 2.43-4.3z" fill="#F7849A"/>
<path transform="translate(629 109)" d="m0 0c1.31-0.00282 2.63-0.00564 3.98-0.00854 1.47 0.00194 2.94 0.00399 4.4 0.00613 1.54-0.00135 3.07-0.00313 4.61-0.00531 4.18-0.00457 8.36-0.00278 12.5 3.79e-4 4.37 0.00252 8.73 1.86e-4 13.1-0.00139 7.33-0.00182 14.7 5.85e-4 22 0.00534 8.49 0.00544 17 0.00368 25.5-0.00183 7.28-0.00453 14.6-0.00518 21.8-0.00256 4.35 0.00156 8.7 0.00176 13.1-0.00154 4.09-0.00288 8.18-9.04e-4 12.3 0.00489 1.51 0.00133 3.01 9.33e-4 4.52-0.00126 2.05-0.00271 4.09 0.00128 6.14 0.00568 1.15 3.77e-4 2.3 7.54e-4 3.48 0.00114 2.56 0.126 2.56 0.126 3.56 1.13 0.0995 1.77 0.131 3.54 0.133 5.31 0.00129 1.08 0.00258 2.15 0.00391 3.26-0.00387 1.13-0.00773 2.26-0.0117 3.43 0.00387 1.13 0.00773 2.26 0.0117 3.43-0.00193 1.61-0.00193 1.61-0.00391 3.26-0.00113 0.994-0.00226 1.99-0.00342 3.01-0.129 2.3-0.129 2.3-1.13 3.3-1.56 0.0959-3.12 0.122-4.68 0.12-1.52 0.00206-1.52 0.00206-3.06 0.00417-1.68-0.00539-1.68-0.00539-3.39-0.0109-1.17 1.46e-4 -2.34 2.92e-4 -3.55 4.43e-4 -3.22-5.79e-4 -6.44-0.00561-9.66-0.0126-3.36-0.00623-6.72-0.00684-10.1-0.00803-6.37-0.00311-12.7-0.0113-19.1-0.0213-7.25-0.0112-14.5-0.0167-21.7-0.0217-14.9-0.0105-29.8-0.0288-44.7-0.0503v31c5.04-0.0116 10.1-0.0232 15.3-0.0352 3.19-0.00511 6.37-0.00992 9.56-0.0137 5.06-0.00599 10.1-0.0131 15.2-0.0266 4.08-0.0108 8.16-0.0168 12.2-0.0194 1.56-0.00185 3.12-0.00547 4.68-0.0109 2.18-0.00721 4.35-0.00826 6.53-0.0078 1.86-0.00333 1.86-0.00333 3.76-0.00673 2.78 0.12 2.78 0.12 3.78 1.12 0.0993 1.7 0.131 3.4 0.133 5.09 0.00129 1.03 0.00258 2.06 0.00391 3.12-0.00387 1.08-0.00773 2.17-0.0117 3.29 0.00387 1.08 0.00773 2.17 0.0117 3.29-0.00129 1.03-0.00258 2.06-0.00391 3.12-0.00113 0.952-0.00226 1.9-0.00342 2.88-0.129 2.21-0.129 2.21-1.13 3.21-2.18 0.0943-4.36 0.117-6.54 0.114-0.683 1.46e-4 -1.37 2.92e-4 -2.07 4.43e-4 -2.27-6.99e-4 -4.53-0.00849-6.8-0.0163-1.57-0.00186-3.14-0.00329-4.7-0.00429-4.13-0.00383-8.27-0.0137-12.4-0.0247-4.96-0.012-9.91-0.0166-14.9-0.0225-7.54-0.00971-15.1-0.0289-22.6-0.0462v36h123v26h-160c-0.0206-23.6-0.0412-47.1-0.0625-71.4-0.0091-7.46-0.0182-14.9-0.0276-22.6-0.00452-9.07-0.00452-9.07-0.00536-13.3-9.35e-4 -2.98-0.0047-5.95-0.0101-8.93-0.00683-3.79-0.00892-7.58-0.0075-11.4-2.98e-4 -1.39-0.0023-2.79-0.00614-4.18-0.00493-1.88-0.00319-3.75-0.00104-5.63-9.22e-4 -1.05-0.00184-2.11-0.00279-3.19 0.242-4.64 3.15-3.48 7.16-3.48z" fill="#ffffff"/>
<path transform="translate(259,102)" d="m0 0c1.71 2.1 2.96 3.89 3.94 6.44 1.25 3.01 3.03 5.03 5.06 7.56 1.01 2 2.01 4 3 6 1.76 3.05 3.57 6.07 5.38 9.1 1.62 2.9 1.62 2.9 2.59 5.46 1.25 2.94 3 4.99 5.04 7.44 5.44 8.09 10.1 16.7 14.8 25.2 4.44 7.99 8.98 15.9 13.8 23.7 4.31 6.96 8.44 14 12.6 21.1 1.47 2.52 2.94 5.03 4.41 7.55 0.367 0.627 0.734 1.25 1.11 1.9 3.77 6.45 7.6 12.9 11.4 19.3 6.58 11.1 13.1 22.2 19.5 33.4 3.44 5.99 6.92 12 10.4 17.9-2.81 0.795-5.29 1.12-8.2 1.12-0.83 0.00137-1.66 0.00275-2.52 0.00417-0.902-0.0036-1.8-0.00719-2.73-0.0109-1.43 2.19e-4 -1.43 2.19e-4 -2.9 4.43e-4 -3.16-6.96e-4 -6.32-0.00848-9.48-0.0163-2.19-0.00187-4.38-0.00329-6.57-0.00429-5.77-0.00382-11.5-0.0136-17.3-0.0247-5.89-0.0102-11.8-0.0148-17.7-0.0198-11.5-0.0107-23.1-0.0278-34.6-0.0488-0.196-1.6-0.381-3.21-0.562-4.81-0.104-0.893-0.209-1.79-0.316-2.71-0.121-2.48-0.121-2.48 0.879-5.48h2c-0.144-0.825-0.289-1.65-0.438-2.5-0.419-2.61-0.765-5.19-1.06-7.81-0.0931-3.48-0.0931-3.48-1.5-4.69-0.0408-2-0.0425-4 0-6h-2c0.0232-1.09 0.0464-2.17 0.0703-3.29 0.0188-1.45 0.037-2.89 0.0547-4.34 0.0168-0.713 0.0335-1.43 0.0508-2.16 0.0414-4.51-0.609-7.93-2.18-12.2-0.195-2.2-0.195-2.2-0.125-4.12 0.0846-2.62 0.125-5.25 0.125-7.88 0.625-2.34 1.29-4.68 2-7-0.66-0.33-1.32-0.66-2-1v-6h-2v-2c1.98-0.495 1.98-0.495 4-1v-6h-2c0.33-0.99 0.66-1.98 1-3h1v-4c-0.495 0.99-0.495 0.99-1 2-0.66-0.33-1.32-0.66-2-1v-32c0.99-0.495 0.99-0.495 2-1-0.144-0.869-0.289-1.74-0.438-2.63-0.278-1.73-0.278-1.73-0.562-3.49-0.186-1.14-0.371-2.27-0.562-3.45-0.407-3.19-0.516-6.22-0.438-9.43-0.66-0.33-1.32-0.66-2-1-3.04-6.82-3.37-13.5-3.12-20.9 0.0435-1.83 0.0827-3.66 0.117-5.49 0.0243-0.795 0.0487-1.59 0.0737-2.41-0.0659-2.22-0.444-4.1-1.07-6.22h-2c0.256-2.34 0.593-4.68 1-7 0.66-0.33 1.32-0.66 2-1zm107 190 2 2v-2h-2z" fill="#F9B475"/>
<path transform="translate(156,94)" d="m0 0c1.95 0.68 1.95 0.68 4 2 0.609 2.38 0.609 2.38 0.75 5.12 0.0567 0.91 0.113 1.82 0.172 2.76 0.0258 0.699 0.0516 1.4 0.0781 2.12 1.65-0.33 3.3-0.66 5-1 0.66 0.99 1.32 1.98 2 3 1.96 0.577 1.96 0.577 4.12 0.688 1.28 0.103 2.56 0.206 3.88 0.312 0.731-2.27 1.09-3.65 0.5-6-0.587-2.35-0.231-3.73 0.5-6 2.55 1.28 2.93 2.4 4 5v3h-2v2c0.66 0.33 1.32 0.66 2 1v2c0.495 1.48 0.495 1.48 1 3-0.559 2.02-0.559 2.02-1.44 4.25-1.44 4.06-2.09 7.4-1.56 11.8 0.99 0.66 1.98 1.32 3 2-0.99 0.33-1.98 0.66-3 1v11c0.99-1.32 1.98-2.64 3-4 0.188 2.31 0.188 2.31 0 5-1.5 1.63-1.5 1.63-3 3v3c-0.33 0.99-0.66 1.98-1 3-0.305 5.62-0.305 5.62 1 11 0.99 0.33 1.98 0.66 3 1 0.196 1.75 0.381 3.5 0.562 5.25 0.157 1.46 0.157 1.46 0.316 2.95 0.111 2.56-0.102 4.38-0.879 6.8 2.97-0.495 2.97-0.495 6-1 0.687 2.49 1 4.38 1 7-0.99 0.495-0.99 0.495-2 1-0.473 2.54-0.473 2.54-0.625 5.56-0.0773 1.08-0.155 2.17-0.234 3.28-0.116 2.6-0.112 5.12-0.0156 7.72-0.125 3.44-0.125 3.44-1.56 5.06-0.773 0.681-0.773 0.681-1.56 1.38-1.62 6.02-1.95 13.2 0.0625 19.1 2.15 6.59-0.555 12.8-3.06 18.9h2c0.0919 4.89 0.11 9.7-0.5 14.6-0.544 4.43-1.05 8.99-0.5 13.4 0.99 0.99 0.99 0.99 2 2-0.99 0.99-1.98 1.98-3 3-0.33 4.62-0.66 9.24-1 14h-30c0.66-0.33 1.32-0.66 2-1-0.186-0.495-0.371-0.99-0.562-1.5-0.639-3.65 0.0134-6.84 0.562-10.5 1.32 0.33 2.64 0.66 4 1-0.66-1.98-1.32-3.96-2-6-0.66 0.33-1.32 0.66-2 1-1.67-0.987-3.34-1.99-5-3h-3c-1.12-6.62-1.12-6.62 0-10h3c0.0269-1.98 0.0463-3.96 0.0625-5.94 0.0116-1.1 0.0232-2.2 0.0352-3.34 0.215-2.64 0.215-2.64-1.1-3.72-0.0406-1.67-0.0427-3.33 0-5h2c0.993-5.71 1.1-11.2 1-17-0.33 0.66-0.66 1.32-1 2h-2c-0.186-1.45-0.186-1.45-0.375-2.94-0.309-1.52-0.309-1.52-0.625-3.06-0.66-0.33-1.32-0.66-2-1 0.66-0.33 1.32-0.66 2-1-0.0116-0.592-0.0232-1.18-0.0352-1.79-0.00902-0.79-0.018-1.58-0.0273-2.39-0.0116-0.777-0.0232-1.55-0.0352-2.36 0.0977-2.46 0.0977-2.46 0.598-4.64 0.747-4.2 0.604-8.37 0.562-12.6-0.00451-0.884-0.00902-1.77-0.0137-2.68-0.0117-2.17-0.0297-4.34-0.0488-6.51h2c-0.33-0.99-0.66-1.98-1-3-0.0703-2.57-0.0937-5.12-0.0625-7.69 0.00451-0.702 0.00902-1.4 0.0137-2.13 0.0118-1.73 0.0297-3.46 0.0488-5.19-1.49-0.495-1.49-0.495-3-1 1.14-2.88 2.32-5.73 3.56-8.56 1.06-2.53 1.9-4.77 2.44-7.44h-2c-0.33-0.99-0.66-1.98-1-3 0.33-0.66 0.66-1.32 1-2-2.31-0.66-4.62-1.32-7-2v-2c-1.49 0.495-1.49 0.495-3 1-0.825-0.351-1.65-0.701-2.5-1.06-0.825-0.309-1.65-0.619-2.5-0.938-0.99 0.66-1.98 1.32-3 2h-2c-0.99 0.495-0.99 0.495-2 1 1.37-3.62 2.99-6.95 4.87-10.3 0.569-1.02 1.14-2.04 1.73-3.09 0.608-1.08 1.22-2.16 1.84-3.27 0.623-1.11 1.25-2.22 1.89-3.36 4.62-8.18 9.41-16.2 14.4-24.2 2.2-3.53 4.26-7.12 6.3-10.7z" fill="#F98A93"/>
<path transform="translate(236,61)" d="m0 0c0.693 1.99 1.36 3.99 2 6 0.495 0.495 0.99 0.99 1.5 1.5 2.14 2.14 2.55 4.65 3.5 7.5 1.54 1.71 1.54 1.71 3 3v2l2 2v3c0.66 0.33 1.32 0.66 2 1 1.25 2.15 2 3.5 2 6 0.66 0.33 1.32 0.66 2 1 1.04 1.64 2.04 3.31 3 5 0.66 0.99 1.32 1.98 2 3-0.461 2.04-0.461 2.04-1.38 4.19-0.296 0.715-0.593 1.43-0.898 2.17-0.24 0.543-0.48 1.09-0.727 1.64h2c1.77 3.05 2.22 5.13 2.09 8.63-0.02 0.889-0.04 1.78-0.0605 2.7-0.0604 1.84-0.125 3.68-0.195 5.52-0.137 6.56 0.931 12 3.17 18.1 0.66-1.32 1.32-2.64 2-4-0.0116 0.69-0.0232 1.38-0.0352 2.09-0.0583 6.07 0.246 11.9 1.04 17.9h1v8l-2-2c-0.0538 2.63-0.0936 5.25-0.125 7.88-0.0168 0.746-0.0335 1.49-0.0508 2.26-0.0176 1.96 0.0726 3.91 0.176 5.86l2 2h-3c0.248 1.55 0.248 1.55 0.5 3.12 0.433 3.36 0.5 6.5 0.5 9.88 0.33 0.33 0.66 0.66 1 1 0.33-0.99 0.66-1.98 1-3 0.688 2.31 0.688 2.31 1 5-1.44 1.81-1.44 1.81-3 3h2v6c-1.32 0.33-2.64 0.66-4 1v2h2c1.44 5.35 2.31 9.5 1 15v3c-0.0631 1.92-0.126 3.85-0.195 5.77 0.106 2.37 0.106 2.37 1.23 4.97 1.21 4.09 0.973 7.44 0.594 11.6-0.0851 1.1-0.0851 1.1-0.172 2.23-0.14 1.8-0.295 3.6-0.453 5.39h2c2.19 7.19 4.19 14.4 4 22-0.99-0.33-1.98-0.66-3-1v13h-36c-0.99-2.48-0.99-2.48-2-5-0.33-0.66-0.66-1.32-1-2h2c1.08-9.03 1.08-9.03 0-18h-2v-3c-0.66-0.33-1.32-0.66-2-1-0.333-2.33-0.667-4.67-1-7-0.66-0.33-1.32-0.66-2-1v-11c0.99-0.33 1.98-0.66 3-1-0.186-1.07-0.371-2.14-0.562-3.25-0.368-3.15-0.482-4.85 0.562-7.75h4c-0.0232-0.831-0.0464-1.66-0.0703-2.52-0.0271-1.63-0.0271-1.63-0.0547-3.29-0.0232-1.08-0.0464-2.16-0.0703-3.27 0.195-2.92 0.195-2.92 2.2-5.92h2c-0.66-0.99-1.32-1.98-2-3-0.142-2.6-0.188-5.09-0.125-7.69 0.0135-1.05 0.0135-1.05 0.0273-2.13 0.0235-1.73 0.0594-3.46 0.0977-5.19h-2c-0.495 1.98-0.495 1.98-1 4-0.495-5.94-0.495-5.94-1-12 1.65-0.33 3.3-0.66 5-1v-2h2c-0.115-1.58-0.242-3.17-0.375-4.75-0.0696-0.882-0.139-1.76-0.211-2.67-0.414-2.58-1.16-4.31-2.41-6.58v-1c-0.545-2.26-1.1-4.52-1.66-6.77-0.34-2.23-0.34-2.23 0.66-5.23h2c-0.0412-0.784-0.0825-1.57-0.125-2.38 0.125-2.62 0.125-2.62 2.12-4.62 0.184-2.33 0.184-2.33-0.0234-5.01-0.0516-0.986-0.103-1.97-0.156-2.99-0.0967-1.55-0.0967-1.55-0.195-3.13-0.0851-1.56-0.0851-1.56-0.172-3.15-0.142-2.57-0.293-5.15-0.453-7.72-0.99-0.33-1.98-0.66-3-1 0.33-0.99 0.66-1.98 1-3 0.66 0.33 1.32 0.66 2 1v-3c-0.99-0.33-1.98-0.66-3-1-1.2-2.41-1.1-3.95-1.06-6.62 0.0135-1.23 0.0135-1.23 0.0273-2.48 0.0116-0.626 0.0232-1.25 0.0352-1.9h-3c-1.25-7.62-1.25-7.62 1-11v-1h-1c-0.77-3.66-1.05-7.09-1-10.8 0.0507-4.19-0.247-8.22-0.781-12.4-0.219-1.81-0.219-1.81-0.219-3.81-0.66-0.33-1.32-0.66-2-1 0.33-0.619 0.66-1.24 1-1.88 1.14-2.04 1.14-2.04 1-4.12 0.99-0.33 1.98-0.66 3-1-0.33-2.97-0.66-5.94-1-9 3-1 3-1 6 0z" fill="#FBAE7D"/>
<path transform="translate(207,11)" d="m0 0c0.119 0.572 0.237 1.14 0.359 1.73 0.687 2.43 1.65 4.32 2.89 6.52 0.442 0.78 0.884 1.56 1.34 2.36 1.75 2.97 3.6 5.87 5.49 8.76 0.918 1.63 0.918 1.63 0.918 3.63 0.66 0.33 1.32 0.66 2 1 0.869 1.57 1.67 3.19 2.44 4.81 1.59 3.38 3.32 6.21 5.56 9.19 0.33 0.99 0.66 1.98 1 3 0.66 0.66 1.32 1.32 2 2 0.719 2.32 1.39 4.65 2 7-0.66 0.66-1.32 1.32-2 2-0.0238 1.99-0.0238 1.99 0.375 4.12 0.206 1.28 0.412 2.56 0.625 3.88h-4c0.33 0.99 0.66 1.98 1 3-0.33 0.99-0.66 1.98-1 3 0.298 1.34 0.641 2.67 1 4 1.01 6.37 1.11 12.6 1 19h3c-0.33 2.97-0.66 5.94-1 9h-2v8h3c0.0561 0.922 0.0561 0.922 0.113 1.86 0.0986 1.21 0.0986 1.21 0.199 2.45 0.058 0.801 0.116 1.6 0.176 2.43 0.602 2.66 1.58 3.42 3.51 5.26v3h-2c-0.33 0.66-0.66 1.32-1 2 1.32 0.33 2.64 0.66 4 1 0.225 3.79 0.427 7.58 0.625 11.4l0.195 3.27c0.0516 1.03 0.103 2.06 0.156 3.12 0.0786 1.43 0.0786 1.43 0.159 2.89-0.135 2.34-0.135 2.34-2.14 4.34-0.167 3.58-0.167 3.58 0 7-0.33-0.99-0.66-1.98-1-3h-2c0.495 3.46 0.495 3.46 1 7h2c-0.0206 1.13-0.0412 2.27-0.0625 3.44-0.353 3.38-0.353 3.38 1.06 4.56 0.26 1.64 0.459 3.29 0.625 4.94 0.0954 0.896 0.191 1.79 0.289 2.71 0.0859 2.35 0.0859 2.35-0.914 4.35h-2c0.33 0.99 0.66 1.98 1 3-1.65 0.33-3.3 0.66-5 1 0.495 3.46 0.495 3.46 1 7h2c0.654 4.74 1 9.21 1 14 0.227 0.722 0.454 1.44 0.688 2.19 0.103 0.598 0.206 1.2 0.312 1.81-0.717 0.611-0.717 0.611-1.45 1.23-2.72 3.1-2.03 7.08-2.14 11.1-0.134 0.896-0.268 1.79-0.406 2.71-0.99 0.66-1.98 1.32-3 2-1.16 3.48-0.708 5.46 0 9-1.32 0.33-2.64 0.66-4 1v11c0.99 0.33 1.98 0.66 3 1v7c0.99 0.33 1.98 0.66 3 1 3.33 6.66 2.94 11.2 1.51 18.4-0.765 3.88-0.344 5.39 0.492 9.57h-23c-1.48-2.97-0.447-4.9 0.375-8.06 0.414-1.63 0.414-1.63 0.836-3.29 0.789-2.65 0.789-2.65 1.79-3.65-0.309-1.07-0.619-2.14-0.938-3.25-0.731-2.58-1.44-5.15-2.06-7.75h-2c-0.185-9.41-0.185-9.41 1-14l-1.95-0.586c-2.05-1.41-2.05-1.41-2.66-4.45-0.0696-1.78-0.0696-1.78-0.141-3.59-0.0567-1.19-0.113-2.38-0.172-3.6-0.0258-0.915-0.0516-1.83-0.0781-2.77h3c-0.66-0.33-1.32-0.66-2-1v-2h2c-0.33-3.63-0.66-7.26-1-11-0.66 0.33-1.32 0.66-2 1v-8h2c0.33 1.65 0.66 3.3 1 5v-8h2c-0.66-0.66-1.32-1.32-2-2-0.757-6.56-0.717-12.4 3-18 0.66 0.33 1.32 0.66 2 1 3.31-4.47 3.66-8.62 4-14h-2v-4h3c0.108-2.25 0.186-4.5 0.25-6.75 0.0464-1.25 0.0928-2.51 0.141-3.8-0.465-4.11-1.55-4.67-4.39-7.45 0.0469-2.73 0.0469-2.73 0.75-5.62 0.333-1.44 0.333-1.44 0.672-2.91 0.191-0.812 0.382-1.62 0.578-2.46v-2c-1.32-0.33-2.64-0.66-4-1 0.0206-0.969 0.0412-1.94 0.0625-2.94 0.294-2.94 0.294-2.94-1.06-4.06-0.21-1.6-0.368-3.21-0.5-4.81-0.289-3.62-0.289-3.62-1.09-7.15-0.562-2.79-0.0342-5.01 0.527-7.79 0.292-1.48 0.292-1.48 0.59-2.98 0.156-0.748 0.312-1.5 0.473-2.27 1.49-0.495 1.49-0.495 3-1v-3h2c-0.33-0.99-0.66-1.98-1-3h2c0.469-14.5 0.469-14.5-1.76-28.8-0.316-2.85 0.54-4.63 1.76-7.19-0.712-0.495-0.712-0.495-1.44-1-3.8-4.86-2.69-13.1-2.56-19-1.49 0.495-1.49 0.495-3 1-2-3-2-3-2-7-1.32-0.33-2.64-0.66-4-1v-2c-0.771-0.0606-1.54-0.121-2.34-0.184-1-0.0838-2.01-0.168-3.04-0.254-0.998-0.0812-2-0.162-3.02-0.246-2.6-0.316-2.6-0.316-4.6-1.32v2c-1.49 0.495-1.49 0.495-3 1-1-3-1-3 0.66-6.41 0.791-1.37 1.59-2.73 2.4-4.09 0.838-1.44 1.68-2.88 2.51-4.32 0.621-1.06 0.621-1.06 1.26-2.15 2.06-3.58 3.97-7.24 5.88-10.9 3.1-5.14 3.1-5.14 6.29-5.14z" fill="#FCA285"/>
<path transform="translate(299,175)" d="m0 0c4.38 3.36 7.1 6.26 9.88 11.1 0.778 1.34 1.56 2.69 2.34 4.03 0.435 0.759 0.871 1.52 1.32 2.3 2.28 3.95 4.62 7.86 6.95 11.8 6.42 10.8 12.8 21.6 19.1 32.5 0.355 0.605 0.709 1.21 1.07 1.83 3.71 6.33 7.41 12.7 11.1 19 0.599 1.03 1.2 2.06 1.82 3.12 1.16 1.99 2.31 3.98 3.47 5.97 2.7 4.63 5.43 9.24 8.27 13.8 0.783 1.26 0.783 1.26 1.58 2.55 0.979 1.57 1.97 3.13 2.96 4.68 1.1 1.75 2.11 3.55 3.11 5.35-0.33 0.66-0.66 1.32-1 2h-68c-0.33-6.6-0.66-13.2-1-20-0.33-0.66-0.66-1.32-1-2 0-1.79 0.00606-3.58 0.0391-5.37-0.0678-4.57-0.578-9.11-1.02-13.7-0.00773-0.982-0.0155-1.96-0.0234-2.98 0.99-0.99 0.99-0.99 2-2-0.272-1.68-0.615-3.34-1-5-0.037-1.67-0.0476-3.33 0-5 0.99-0.495 0.99-0.495 2-1 0.33 0.66 0.66 1.32 1 2 0.33-0.99 0.66-1.98 1-3h-4c0.227-0.516 0.454-1.03 0.688-1.56 0.389-3.04-0.632-4.79-1.93-7.49-0.84-2.15-1.11-4.03-1.32-6.32-0.144-1.2-0.289-2.39-0.438-3.62-0.66-0.33-1.32-0.66-2-1 0.0619-1.11 0.124-2.23 0.188-3.38-0.0619-1.2-0.124-2.39-0.188-3.62-0.99-0.66-1.98-1.32-3-2 0.99-3.47 0.99-3.47 2-7h2c-0.0232-0.626-0.0464-1.25-0.0703-1.9-0.018-0.817-0.0361-1.63-0.0547-2.48-0.0232-0.812-0.0464-1.62-0.0703-2.46 0.195-2.16 0.195-2.16 2.2-4.16 0.66-0.33 1.32-0.66 2-1-0.523-2.76-1.11-5.33-2-8-0.0392-2-0.0444-4 0-6zm67 117 2 2v-2h-2z" fill="#FBC66B"/>
<path transform="translate(96,200)" d="m0 0c0.495 1.49 0.495 1.49 1 3 1.98-0.348 1.98-0.348 4-1 0.33-0.66 0.66-1.32 1-2 1.98 0.66 3.96 1.32 6 2 0.495 3.96 0.495 3.96 1 8h5c1.1 3.29 0.8 4.71 0 8-1.48 0.495-1.48 0.495-3 1 1.48 0.495 1.48 0.495 3 1-0.33 1.98-0.66 3.96-1 6-1.48 0.495-1.48 0.495-3 1-1.59 3.19-2.73 6.44-3 10 1.34 2.1 1.34 2.1 3 4 1.36 3.59 1 7.21 1 11 0.33 0.66 0.66 1.32 1 2-0.438 2.12-0.438 2.12-1 4h-2v2h2v6h2v2h2v7h3v2h3v8h-2c0.186 0.577 0.371 1.15 0.562 1.75 0.438 2.25 0.438 2.25-0.125 4.38-0.144 0.619-0.289 1.24-0.438 1.88 0.66 0.66 1.32 1.32 2 2h-78c2.62-6.55 5.01-12.1 8.62-18 0.886-1.47 1.77-2.94 2.65-4.41 0.45-0.751 0.899-1.5 1.36-2.27 2.26-3.85 4.4-7.77 6.55-11.7 3.21-5.84 6.53-11.5 10.2-17.1 1.63-2.65 2.98-5.4 4.35-8.19 2.54-4.92 5.41-9.66 8.22-14.4 1.23-2.09 2.46-4.19 3.69-6.29 0.859-1.46 0.859-1.46 1.73-2.95 1.88-3.22 3.74-6.45 5.58-9.7z" fill="#FB7AA9"/>
<path transform="translate(183,61)" d="m0 0c0.392 0.516 0.784 1.03 1.19 1.56 0.897 0.712 0.897 0.712 1.81 1.44 2.48-0.263 2.48-0.263 5-1h4c0.268 0.784 0.536 1.57 0.812 2.38 1.04 2.91 1.04 2.91 4.19 4.62 0.188 3.62 0.188 3.62 0 7 0.66 0.33 1.32 0.66 2 1 0.99 0.66 1.98 1.32 3 2 0.221 2.79 0.281 5.35 0.188 8.12-0.0203 1.13-0.0203 1.13-0.041 2.29-0.0354 1.86-0.0892 3.73-0.146 5.59h-2c-0.33-0.33-0.66-0.66-1-1-0.33 0.99-0.66 1.98-1 3 0.33 0.33 0.66 0.66 1 1 0.359 6.46 0.359 6.46-2 10-0.33-0.66-0.66-1.32-1-2-0.66 2.97-1.32 5.94-2 9h2c-0.75 5.75-0.75 5.75-3 8v-4c-0.33 1.32-0.66 2.64-1 4h-2c-0.0579 4.44-0.0936 8.87-0.125 13.3-0.0168 1.26-0.0335 2.53-0.0508 3.83-0.00645 1.21-0.0129 2.42-0.0195 3.66-0.0105 1.12-0.0209 2.23-0.0317 3.38 0.0138 3.03 0.0138 3.03 2.23 5.82 0.227 2.36 0.227 2.36 0.195 5.11-0.00645 0.983-0.0129 1.97-0.0195 2.98-0.0168 1.02-0.0335 2.05-0.0508 3.1-0.00902 1.04-0.018 2.07-0.0273 3.14-0.0236 2.56-0.0565 5.12-0.0977 7.67h2c0.33-0.66 0.66-1.32 1-2-0.576 2.39-1.22 4.67-2 7-0.339 6.21-0.647 12.5 1.06 18.6 0.944 3.46 0.901 5.06-0.0625 8.44v3h-4l1.56 1.19c0.474 0.598 0.949 1.2 1.44 1.81-0.312 2.69-0.312 2.69-1 5-0.99-0.33-1.98-0.66-3-1 0.163 0.702 0.326 1.4 0.494 2.13 0.53 3.01 0.619 5.77 0.604 8.83-0.00322 1.11-0.00645 2.22-0.00977 3.37-0.0126 1.73-0.0126 1.73-0.0254 3.49-0.00451 1.17-0.00902 2.34-0.0137 3.54-0.0118 2.88-0.0282 5.76-0.0488 8.64h-2c-0.988 2.55-1.29 4.32-0.211 6.88 0.358 0.7 0.717 1.4 1.09 2.12 2.8 5.74 3.17 11.7 3.12 18-0.33 0.66-0.66 1.32-1 2-0.0717 2.55-0.0931 5.07-0.0625 7.62 0.00451 0.706 0.00902 1.41 0.0137 2.14 0.0118 1.74 0.0297 3.49 0.0488 5.23-1.32-0.99-2.64-1.98-4-3 0.186 0.619 0.371 1.24 0.562 1.88 0.438 2.12 0.438 2.12-0.562 4.12h-11c-0.054-2.44-0.0937-4.87-0.125-7.31-0.0168-0.69-0.0335-1.38-0.0508-2.09-0.0364-3.77 0.032-5.38 2.18-8.6h-1c-0.133-6.16 0.0708-12.3 0.438-18.4 0.0392-0.698 0.0785-1.4 0.119-2.12 0.192-3.02 0.481-5.56 1.44-8.45h-2c0.447-3.65 0.996-6.99 2.12-10.5 0.977-3.91 0.735-6.59-0.125-10.5-0.33-0.33-0.66-0.66-1-1-0.493-5.99-0.11-11.4 2-17 0.99-0.99 0.99-0.99 2-2 0.0335-2.11 0.0555-4.22 0.00391-6.34-0.00671-4.58 0.52-9.11 0.996-13.7 1.49-0.495 1.49-0.495 3-1-0.33-1.98-0.66-3.96-1-6-0.99 0.495-0.99 0.495-2 1v-2c-1.98 0.495-1.98 0.495-4 1-0.33-1.32-0.66-2.64-1-4h2c-0.248-0.773-0.248-0.773-0.5-1.56-0.65-3.17-0.562-6.21-0.5-9.44-1.32-0.33-2.64-0.66-4-1-1.62-5.06-1.27-9.93 0-15-0.33-0.99-0.66-1.98-1-3 1.98-0.99 1.98-0.99 4-2v-3c-0.99 0.99-1.98 1.98-3 3-0.0271-1.44-0.0465-2.87-0.0625-4.31-0.0116-0.801-0.0232-1.6-0.0352-2.43 0.0977-2.26 0.0977-2.26 1.1-5.26 0.99-0.495 0.99-0.495 2-1-1.49-0.99-1.49-0.99-3-2-0.568-4.54 0.179-7.8 1.62-12.1 1.29-3.88 1.29-3.88 0.562-7.88-0.392-0.66-0.784-1.32-1.19-2v-2h2c-0.99-2.31-1.98-4.62-3-7-1.25 2.81-1.25 2.81-0.438 4.94 0.568 2.68-0.277 3.72-1.56 6.06-1.46 0.081-2.92 0.139-4.38 0.188-0.812 0.0348-1.62 0.0696-2.46 0.105-0.714-0.0967-1.43-0.193-2.16-0.293-0.66-0.99-1.32-1.98-2-3h-4c-0.456-2.02-0.911-4.04-1.37-6.05-0.538-2.15-0.538-2.15-2.63-3.95 0.557-6.17 4.18-11.4 7.12-16.7 0.557-1.06 1.11-2.12 1.69-3.21 4.16-7.5 4.16-7.5 7.07-9.22 1.86-0.529 1.86-0.529 5.11-0.884 3.11-0.669 3.11-0.669 4.19-3.06 0.268-0.639 0.536-1.28 0.812-1.94z" fill="#FC958E"/>
<path transform="translate(236,61)" d="m0 0c0.693 1.99 1.36 3.99 2 6 0.773 0.712 0.773 0.712 1.56 1.44 2.35 2.55 2.21 5.19 2.44 8.56-0.312 3.38-0.312 3.38-1 6-0.66 0.33-1.32 0.66-2 1 0.142 1.75 0.289 3.5 0.438 5.25 0.0812 0.975 0.162 1.95 0.246 2.95 0.364 3.22 0.867 5.9 2.32 8.8 0.279 1.83 0.501 3.66 0.688 5.5 0.107 0.98 0.214 1.96 0.324 2.97-0.0117 2.53-0.0117 2.53-2.01 4.53-0.167 2.58-0.167 2.58 0 5h3c0.693 3.72 1.11 7.21 1 11 1.49 0.495 1.49 0.495 3 1-0.0412 0.846-0.0825 1.69-0.125 2.56 0.14 3.86 0.953 6.77 2.12 10.4 1.98-0.495 1.98-0.495 4-1 1.22 4.62 0.981 8.91 0.688 13.6-0.0354 0.763-0.0709 1.53-0.107 2.31-0.223 3.79-0.435 5.84-2.58 9.06v-3h-2v20h1c0.0895 4.47-0.143 8.61-1 13h1v9h-2c-0.33 3.63-0.66 7.26-1 11h-2c0.0116 0.843 0.0232 1.69 0.0352 2.55 0.00902 1.1 0.018 2.19 0.0273 3.32 0.0116 1.09 0.0232 2.18 0.0352 3.3-0.0977 2.82-0.0977 2.82-1.1 4.82 0.66 0.33 1.32 0.66 2 1-0.33 1.65-0.66 3.3-1 5h2c-0.33-0.99-0.66-1.98-1-3 0.66-0.33 1.32-0.66 2-1 0.0606 0.638 0.121 1.28 0.184 1.93 0.126 1.24 0.126 1.24 0.254 2.5 0.0812 0.824 0.162 1.65 0.246 2.5 0.106 2.05 0.106 2.05 1.32 3.07 0.0406 1.67 0.0427 3.33 0 5-0.495-0.99-0.495-0.99-1-2-0.763 0.33-1.53 0.66-2.31 1-2.69 1-2.69 1-5.69 1 0.0838 0.615 0.168 1.23 0.254 1.86 0.102 0.808 0.204 1.62 0.309 2.45 0.104 0.801 0.209 1.6 0.316 2.43 0.121 2.26 0.121 2.26-0.879 5.26h5v14h2c0.33-1.32 0.66-2.64 1-4 0.33 1.98 0.66 3.96 1 6-0.99 0.33-1.98 0.66-3 1 0.309 0.681 0.619 1.36 0.938 2.06 1.06 2.94 1.06 2.94 1.5 6.62 0.186 1.09 0.371 2.19 0.562 3.31 1.49 0.99 1.49 0.99 3 2-0.33 0.66-0.66 1.32-1 2 0.99-0.33 1.98-0.66 3-1v2h-22c-0.99-2.48-0.99-2.48-2-5-0.33-0.66-0.66-1.32-1-2h2c1.08-9.03 1.08-9.03 0-18h-2v-3c-0.66-0.33-1.32-0.66-2-1-0.333-2.33-0.667-4.67-1-7-0.66-0.33-1.32-0.66-2-1v-11c0.99-0.33 1.98-0.66 3-1-0.186-1.07-0.371-2.14-0.562-3.25-0.368-3.15-0.482-4.85 0.562-7.75h4c-0.0232-0.831-0.0464-1.66-0.0703-2.52-0.0271-1.63-0.0271-1.63-0.0547-3.29-0.0232-1.08-0.0464-2.16-0.0703-3.27 0.195-2.92 0.195-2.92 2.2-5.92h2c-0.66-0.99-1.32-1.98-2-3-0.142-2.6-0.188-5.09-0.125-7.69 0.0135-1.05 0.0135-1.05 0.0273-2.13 0.0235-1.73 0.0594-3.46 0.0977-5.19h-2c-0.495 1.98-0.495 1.98-1 4-0.495-5.94-0.495-5.94-1-12 1.65-0.33 3.3-0.66 5-1v-2h2c-0.115-1.58-0.242-3.17-0.375-4.75-0.0696-0.882-0.139-1.76-0.211-2.67-0.414-2.58-1.16-4.31-2.41-6.58v-1c-0.545-2.26-1.1-4.52-1.66-6.77-0.34-2.23-0.34-2.23 0.66-5.23h2c-0.0412-0.784-0.0825-1.57-0.125-2.38 0.125-2.62 0.125-2.62 2.12-4.62 0.184-2.33 0.184-2.33-0.0234-5.01-0.0516-0.986-0.103-1.97-0.156-2.99-0.0967-1.55-0.0967-1.55-0.195-3.13-0.0851-1.56-0.0851-1.56-0.172-3.15-0.142-2.57-0.293-5.15-0.453-7.72-0.99-0.33-1.98-0.66-3-1 0.33-0.99 0.66-1.98 1-3 0.66 0.33 1.32 0.66 2 1v-3c-0.99-0.33-1.98-0.66-3-1-1.2-2.41-1.1-3.95-1.06-6.62 0.0135-1.23 0.0135-1.23 0.0273-2.48 0.0116-0.626 0.0232-1.25 0.0352-1.9h-3c-1.25-7.62-1.25-7.62 1-11v-1h-1c-0.77-3.66-1.05-7.09-1-10.8 0.0507-4.19-0.247-8.22-0.781-12.4-0.219-1.81-0.219-1.81-0.219-3.81-0.66-0.33-1.32-0.66-2-1 0.33-0.619 0.66-1.24 1-1.88 1.14-2.04 1.14-2.04 1-4.12 0.99-0.33 1.98-0.66 3-1-0.33-2.97-0.66-5.94-1-9 3-1 3-1 6 0z" fill="#F9A97E"/>
<path transform="translate(156,94)" d="m0 0c1.95 0.68 1.95 0.68 4 2 0.609 2.38 0.609 2.38 0.75 5.12 0.0567 0.91 0.113 1.82 0.172 2.76 0.0258 0.699 0.0516 1.4 0.0781 2.12 1.65-0.33 3.3-0.66 5-1 0.99 1.48 0.99 1.48 2 3 1.96 0.577 1.96 0.577 4.12 0.688 1.28 0.103 2.56 0.206 3.88 0.312 0.731-2.27 1.09-3.65 0.5-6s-0.231-3.73 0.5-6c2.55 1.28 2.93 2.4 4 5v3h-2v2c0.66 0.33 1.32 0.66 2 1v2c0.495 1.48 0.495 1.48 1 3-0.559 2.02-0.559 2.02-1.44 4.25-1.44 4.06-2.09 7.4-1.56 11.8 0.99 0.66 1.98 1.32 3 2-0.99 0.33-1.98 0.66-3 1v11c0.99-1.32 1.98-2.64 3-4 0.188 2.31 0.188 2.31 0 5-1.5 1.62-1.5 1.62-3 3v3c-0.33 0.99-0.66 1.98-1 3-0.305 5.62-0.305 5.62 1 11 0.99 0.33 1.98 0.66 3 1 0.196 1.75 0.381 3.5 0.562 5.25 0.157 1.46 0.157 1.46 0.316 2.95 0.111 2.56-0.102 4.38-0.879 6.8 2.97-0.495 2.97-0.495 6-1 0.687 2.49 1 4.38 1 7-0.99 0.495-0.99 0.495-2 1-0.473 2.54-0.473 2.54-0.625 5.56-0.0773 1.08-0.155 2.17-0.234 3.28-0.116 2.6-0.112 5.12-0.0156 7.72-0.125 3.44-0.125 3.44-1.56 5.06-0.773 0.681-0.773 0.681-1.56 1.38-1.62 6.02-1.95 13.2 0.0625 19.1 2.15 6.59-0.555 12.8-3.06 18.9h2c0.0919 4.89 0.11 9.7-0.5 14.6-0.544 4.43-1.05 8.99-0.5 13.4 0.99 0.99 0.99 0.99 2 2-0.481 0.347-0.962 0.694-1.46 1.05-2.3 2.9-2.06 5.49-2.23 9.14-0.0657 1.27-0.131 2.54-0.199 3.86-0.0561 1.46-0.0561 1.46-0.113 2.96h-13c0.66-3.3 1.32-6.6 2-10 0.66 0.33 1.32 0.66 2 1-0.33-0.99-0.66-1.98-1-3 2.47-0.99 2.47-0.99 5-2v-5c-1.32 0.33-2.64 0.66-4 1-0.33-2.31-0.66-4.62-1-7-0.33 0.66-0.66 1.32-1 2h-2c-0.33-0.99-0.66-1.98-1-3-0.99 0.99-0.99 0.99-2 2-1.05-3.15-1.1-5.39-1.06-8.69 0.00902-0.994 0.018-1.99 0.0273-3.01 0.0116-0.759 0.0232-1.52 0.0352-2.3h3c0.99-0.99 0.99-0.99 2-2 0.454 0.804 0.907 1.61 1.38 2.44 1.37 2.65 1.37 2.65 3.62 3.56-0.144-0.516-0.289-1.03-0.438-1.56-0.721-3.12-1.14-6.26-1.56-9.44 0.99-0.33 1.98-0.66 3-1v-18h2c-0.668-5.55-0.668-5.55-1.56-11.1-0.438-2.94-0.438-2.94-0.375-6.38 0.0935-3.62 0.0935-3.62-1.12-7.19-0.975-3.51-0.663-4.93 0.0625-8.38-0.85-2.75-0.85-2.75-2-5h-4c0.33-5.61 0.66-11.2 1-17 0.99-0.495 0.99-0.495 2-1-0.0412-0.763-0.0825-1.53-0.125-2.31 0.125-2.69 0.125-2.69 2.12-5.69h-2v-2c-1.49 0.495-1.49 0.495-3 1-2.96-6.53-3.35-11.9-3-19 0.99-0.495 0.99-0.495 2-1v-4h2v-2h-2v-13h-2v-3c-3.63-0.33-7.26-0.66-11-1 0.33 1.28 0.66 2.56 1 3.88 0.552 2.14 1 3.91 1 6.12-2.64-0.33-5.28-0.66-8-1v-5c-1.65 0.66-3.3 1.32-5 2-0.495-1.48-0.495-1.48-1-3 0.33-0.66 0.66-1.32 1-2h2c-0.186-0.587-0.371-1.17-0.562-1.78-1.29-6.55 4.45-13.4 7.84-18.6 2.05-3.14 3.9-6.35 5.72-9.63z" fill="#F99091"/>
<path transform="translate(308,187)" d="m0 0c8.06 9.76 14 21.3 20.3 32.2 4.5 7.74 9.06 15.4 13.6 23.1 6.65 11.2 13.2 22.4 19.7 33.7 3.44 5.99 6.92 12 10.4 17.9h-4v-2h-3c-0.496-1.11-0.993-2.22-1.5-3.37-3.45-7.6-6.89-14.7-11.9-21.4-2.17-3.08-3.72-6.36-5.34-9.75-1.29-2.59-2.73-5.03-4.25-7.5-8-13.1-8-13.1-8-17h-2c-0.572-1.16-1.14-2.33-1.73-3.52-2.05-4.11-4.25-8.11-6.52-12.1-0.384-0.681-0.768-1.36-1.16-2.06-1.96-3.47-3.95-6.94-5.95-10.4-0.555-0.96-0.555-0.96-1.12-1.94-1.02-1.76-2.05-3.53-3.08-5.29-1.43-2.7-1.43-2.7-1.43-4.7h-2c-0.66-1.65-1.32-3.3-2-5 0.33-0.33 0.66-0.66 1-1z" fill="#ffffff"/>
<path transform="translate(95,199)" d="m0 0c1 3 1 3-0.0764 5.39-0.554 0.926-1.11 1.85-1.68 2.81-0.608 1.03-1.22 2.06-1.84 3.12-0.649 1.07-1.3 2.15-1.97 3.26-0.933 1.57-0.933 1.57-1.88 3.17-2.4 4.03-4.82 8.05-7.25 12.1-2.62 4.33-5.06 8.66-7.3 13.2-1.23 2.03-2.48 4.05-3.75 6.06-3.35 5.35-6.37 10.8-9.33 16.4-2.64 4.91-5.5 9.69-8.36 14.5-2.65 4.46-5.19 8.95-7.53 13.6-1.04 1.47-1.04 1.47-4.04 2.47 1.26-4.12 2.78-7.65 4.98-11.3 0.585-0.992 1.17-1.98 1.77-3.01 0.619-1.04 1.24-2.08 1.88-3.15 1.27-2.16 2.55-4.32 3.82-6.48 0.614-1.04 1.23-2.08 1.86-3.15 2.1-3.57 4.15-7.15 6.19-10.8 1.17-2.04 2.33-4.08 3.5-6.12 0.575-1.01 1.15-2.02 1.74-3.06 0.539-0.928 1.08-1.86 1.63-2.81 0.461-0.802 0.923-1.6 1.4-2.43 0.405-0.559 0.81-1.12 1.23-1.7h2c0.1-0.706 0.201-1.41 0.304-2.14 0.803-3.3 2.12-5.71 3.83-8.65 0.642-1.11 1.28-2.21 1.95-3.36 0.337-0.573 0.674-1.15 1.02-1.74 1.01-1.71 2-3.43 3-5.15 4.14-7.1 8.43-14.1 12.9-21z" fill="#ffffff"/>
<path transform="translate(810,113)" d="m0 0 2 1c-0.33 15.5-0.66 31-1 47h2v56c-0.99 0.495-0.99 0.495-2 1-0.962-5.64-1.14-11.1-1.11-16.8-1.46e-4 -0.957-2.92e-4 -1.91-4.43e-4 -2.9 6.93e-4 -3.14 0.00846-6.29 0.0163-9.43 0.00187-2.19 0.00329-4.37 0.00429-6.56 0.00381-5.74 0.0136-11.5 0.0247-17.2 0.0102-5.87 0.0148-11.7 0.0198-17.6 0.0107-11.5 0.0278-23 0.0488-34.5z" fill="#ffffff"/>
<path transform="translate(568,111)" d="m0 0c0.53 0.163 1.06 0.326 1.61 0.494 2.95 0.623 5.68 0.618 8.69 0.604 1.81-0.00483 1.81-0.00483 3.65-0.00977 1.88-0.0126 1.88-0.0126 3.8-0.0254 1.27-0.00451 2.54-0.00902 3.85-0.0137 3.13-0.0118 6.27-0.0282 9.4-0.0488-0.33 0.66-0.66 1.32-1 2-1.12-0.0348-1.12-0.0348-2.27-0.0703-0.985-0.018-1.97-0.0361-2.98-0.0547-0.975-0.0232-1.95-0.0464-2.95-0.0703-2.82 0.197-4.41 0.75-6.8 2.2 0.206 1.28 0.413 2.56 0.625 3.88 0.352 2.18 0.352 2.18 0.375 4.12-0.66 0.66-1.32 1.32-2 2h-3v-3h3c0.33-0.66 0.66-1.32 1-2h-4v-4c-0.66-0.33-1.32-0.66-2-1v-2h-10c0.33-0.99 0.66-1.98 1-3z" fill="#f5faff"/>
<path transform="translate(1514,231)" d="m0 0c-2.54 2.54-4.12 2.24-7.58 2.25-1.17-0.0108-1.17-0.0108-2.36-0.0218-1.23 4.38e-4 -1.23 4.38e-4 -2.48 8.85e-4 -2.72-0.0014-5.43-0.017-8.15-0.0326-1.88-0.00373-3.76-0.00658-5.64-0.00858-4.96-0.00764-9.91-0.0273-14.9-0.0494-5.05-0.0204-10.1-0.0296-15.2-0.0397-9.92-0.0215-19.8-0.0556-29.8-0.0977v-1c0.922-0.0103 1.84-0.0206 2.79-0.0312 8.71-0.0982 17.4-0.201 26.1-0.308 4.48-0.055 8.95-0.108 13.4-0.158 4.32-0.0479 8.65-0.1 13-0.156 1.65-0.0203 3.29-0.039 4.94-0.0561 2.31-0.0243 4.63-0.0543 6.94-0.0856 1.31-0.0155 2.63-0.0311 3.98-0.0471 2.78-0.116 5.37-0.344 8.11-0.734 3.7-0.425 3.7-0.425 6.7 0.575z" fill="#ffffff"/>
<path transform="translate(1323,178)" d="m0 0c4.63 1.54 5.88 5.23 8.25 9.31 0.472 0.773 0.944 1.55 1.43 2.34 0.441 0.75 0.882 1.5 1.34 2.27 0.405 0.685 0.81 1.37 1.23 2.08 0.915 2.42 0.613 3.6-0.243 6-0.66-0.33-1.32-0.66-2-1v-3h-2c-1.05-1.64-2.04-3.31-3-5-0.557-0.722-1.11-1.44-1.69-2.19-1.31-1.81-1.31-1.81-1.31-3.81h-3c-0.625-2.38-0.625-2.38-1-5 0.66-0.66 1.32-1.32 2-2z" fill="#f5faff"/>
<path transform="translate(657,195)" d="m0 0h2v38c-0.99-0.66-1.98-1.32-3-2-0.356-3.1-0.356-3.1-0.328-7.05 0.00187-0.698 0.00375-1.4 0.00568-2.12 0.00673-1.48 0.0207-2.96 0.0412-4.43 0.031-2.26 0.041-4.51 0.0469-6.77 0.0764-12 0.0764-12 1.23-15.6z" fill="#ffffff"/>
<path transform="translate(445,204)" d="m0 0h3c0.25 2.25 0.25 2.25 0 5-1.31 1.36-2.65 2.69-4 4-1.18 2.29-2.07 4.59-3 7-0.66-0.33-1.32-0.66-2-1-0.639-0.248-1.28-0.495-1.94-0.75-2.73-1.65-3.73-3.38-5.06-6.25 0.33-0.99 0.66-1.98 1-3v2c2.64 0.33 5.28 0.66 8 1v-2c0.99-0.33 1.98-0.66 3-1v-3c0.33-0.66 0.66-1.32 1-2z" fill="#ffffff"/>
<path transform="translate(844,194)" d="m0 0 2 1c0.33 12.5 0.66 25.1 1 38-0.99-0.33-1.98-0.66-3-1v-38z" fill="#ffffff"/>
<path transform="translate(844,135)" d="m0 0h2c0.217 4.93 0.414 9.86 0.592 14.8 0.0634 1.68 0.132 3.35 0.207 5.03 0.106 2.41 0.193 4.82 0.275 7.23 0.0374 0.75 0.0747 1.5 0.113 2.27 0.0614 2.12 0.0614 2.12-0.187 5.68-0.99 0.99-1.98 1.98-3 3v-38z" fill="#ffffff"/>
<path transform="translate(1516,142)" d="m0 0h1v28c-3.96 0.33-7.92 0.66-12 1v-2c0.554-0.242 1.11-0.485 1.68-0.734 0.724-0.335 1.45-0.67 2.2-1.02 1.08-0.487 1.08-0.487 2.18-0.984 2.37-1.54 2.88-2.67 3.95-5.27 0.36-2.22 0.36-2.22 0.414-4.55 0.0387-0.844 0.0773-1.69 0.117-2.56 0.0309-0.873 0.0619-1.75 0.0938-2.64 0.0387-0.888 0.0773-1.78 0.117-2.69 0.094-2.19 0.18-4.37 0.258-6.56z" fill="#ffffff"/>
<path transform="translate(337,112)" d="m0 0c2.31 0.188 2.31 0.188 5 1 2.2 2.91 3.19 5.5 4 9 0.265 1.06 0.265 1.06 0.535 2.14l1.46 5.86c-3.33-3.05-5.5-6.22-7.75-10.1-0.614-1.05-1.23-2.11-1.86-3.2-1.39-2.68-1.39-2.68-1.39-4.68z" fill="#f5faff"/>
<path transform="translate(399,149)" d="m0 0c3.04 3.57 5.21 7.1 7.25 11.3 0.521 1.07 1.04 2.14 1.58 3.24 0.387 0.808 0.773 1.62 1.17 2.45-3.27-0.728-4.89-1.31-7-4-0.667-1.67-1.33-3.33-2-5-1.52-1.77-1.52-1.77-3-3 0.66-1.65 1.32-3.3 2-5z" fill="#ffffff"/>
<path transform="translate(410,168)" d="m0 0c3.94 4.65 7.8 9.19 8.25 15.4-0.124 1.27-0.124 1.27-0.25 2.56-0.99-0.33-1.98-0.66-3-1-1.25-2.94-1.25-2.94-2-6 0.33-0.66 0.66-1.32 1-2-1.32-0.33-2.64-0.66-4-1-0.381-2.33-0.713-4.66-1-7 0.33-0.33 0.66-0.66 1-1z" fill="#ffffff"/>
<path transform="translate(289,154)" d="m0 0c4.14 3.78 6.5 8.74 9.25 13.6 0.567 0.971 1.13 1.94 1.72 2.94 0.531 0.927 1.06 1.85 1.61 2.81 0.733 1.28 0.733 1.28 1.48 2.58 0.31 0.695 0.621 1.39 0.94 2.11-0.33 0.66-0.66 1.32-1 2-4.31-4.56-6.88-9.44-9.57-15.1-1.38-2.92-1.38-2.92-3.11-5.59-1.32-2.32-1.32-2.32-1.32-5.32z" fill="#ffffff"/>
<path transform="translate(810,231)" d="m0 0h1c0.339 2.35 0.672 4.71 1 7.06 0.0954 0.657 0.191 1.31 0.289 1.99 0.6 4.35 0.802 8.56 0.711 12.9h-3v-22z" fill="#ffffff"/>
<path transform="translate(976,203)" d="m0 0c4.22 6.34 3.51 14.3 2.5 21.6-0.165 0.784-0.33 1.57-0.5 2.38h-1c-0.797-8.03-1.13-15.9-1-24z" fill="#ffffff"/>
<path transform="translate(958,181)" d="m0 0c3.96 0.565 6.67 1.81 10 4-0.99 0.33-1.98 0.66-3 1-0.99 1.49-0.99 1.49-2 3-1.98-0.99-3.96-1.98-6-3 0.33-1.65 0.66-3.3 1-5z" fill="#f5faff"/>
<path transform="translate(1345,214)" d="m0 0c2.9 2.4 3.5 4.31 4 8h2v2h-6c-2.22-5.42-2.22-5.42-1.12-8.38 0.371-0.536 0.743-1.07 1.12-1.62z" fill="#f5faff"/>
<path transform="translate(477,143)" d="m0 0h3c-0.324 1.67-0.659 3.33-1 5-0.0619 0.681-0.124 1.36-0.188 2.06-1.31 3.13-3.98 4.25-6.81 5.94 0.607-4.86 2.73-8.74 5-13z" fill="#ffffff"/>
<path transform="translate(408,112)" d="m0 0h6v10c-2.74-3.2-4.63-6-6-10z" fill="#ffffff"/>
<path transform="translate(1213,170)" d="m0 0c0.33 0.99 0.66 1.98 1 3-1.25 2.31-1.25 2.31-3 5-0.495 1.07-0.99 2.15-1.5 3.25-1.5 2.75-1.5 2.75-4.5 3.75 1.33-3.33 2.67-6.67 4-10h2c0.66-1.65 1.32-3.3 2-5z" fill="#ffffff"/>
<path transform="translate(426,199)" d="m0 0c0.33 0.66 0.66 1.32 1 2 0.99-0.33 1.98-0.66 3-1 2 3 2 3 1.62 5.69-0.206 0.763-0.413 1.53-0.625 2.31h-2c-3-5.62-3-5.62-3-9z" fill="#f5faff"/>
<path transform="translate(520,198)" d="m0 0c0 3.38-0.875 5.83-2 9-0.99-0.33-1.98-0.66-3-1 0.875-4.75 0.875-4.75 2-7 0.99-0.33 1.98-0.66 3-1z" fill="#ffffff"/>
<path transform="translate(1542,187)" d="m0 0c0.103 0.639 0.206 1.28 0.312 1.94 0.227 0.681 0.454 1.36 0.688 2.06 0.99 0.33 1.98 0.66 3 1-0.33 0.66-0.66 1.32-1 2h-4v-4c-0.99 0.33-1.98 0.66-3 1-0.33-0.66-0.66-1.32-1-2 3-2 3-2 5-2z" fill="#f5faff"/>
<path transform="translate(464,146)" d="m0 0c2.87 0.573 3.86 0.861 6 3v3c-0.99 0.33-1.98 0.66-3 1-1.5-1.25-1.5-1.25-3-3v-4z" fill="#f5faff"/>
<path transform="translate(177,97)" d="m0 0c2.55 1.28 2.93 2.4 4 5v3c-1.65-0.33-3.3-0.66-5-1-0.0425-2-0.0408-4 0-6 0.33-0.33 0.66-0.66 1-1z" fill="#FB9191"/>
</svg>